<svg width="127" height="45" viewBox="0 0 127 45" fill="none" xmlns="http://www.w3.org/2000/svg">
    <g clip-path="url(#clip0_15030_523)">
    <path d="M104.425 26.3839C100.911 26.3839 99.2471 24.5654 99.2471 21.8223V13.3463H96.2266V9.80173H99.2471V4.31543H103.285V9.77091H108.586V13.3154H103.285V21.2675C103.285 22.3154 103.84 22.7778 104.733 22.7778H108.586V26.3223H104.425V26.3839Z" fill="#FF6A39"/>
    <path d="M116.107 26.384L111.021 9.771H115.09L118.665 22.7778H118.758L122.271 9.80182H126.371L121.285 26.4148H116.107V26.384Z" fill="#FF6A39"/>
    <path d="M14.3322 44.2603C18.8939 44.2603 22.6233 42.8425 25.0891 40.4384C26.9384 38.5891 28.0172 36.1541 28.0172 33.2877C28.0172 30.6986 27.0617 28.387 25.3048 26.6302C23.548 24.8733 21.0206 23.5788 17.8151 22.9623L12.5754 21.9452C10.387 21.5445 9.18494 20.4349 9.18494 18.9555C9.18494 16.9829 11.0959 15.6267 14.1473 15.6267C16.0582 15.6267 17.6918 16.2432 18.7706 17.3219C19.4487 18.0617 19.9418 19.0171 20.0651 20.0959L27.6165 18.4007C27.4007 16.2123 26.3836 14.3322 24.8425 12.7603C22.4076 10.3254 18.5856 8.75344 14.0856 8.75344C9.92467 8.75344 6.47261 10.1096 4.09932 12.298C2.03425 14.2089 0.893837 16.798 0.893837 19.6644C0.893837 22.1918 1.69521 24.2877 3.32877 25.9213C4.96233 27.5548 7.33562 28.7877 10.4795 29.5274L15.6575 30.7603C18.2466 31.3767 19.387 32.3322 19.387 34.0274C19.387 36.1233 17.476 37.3562 14.363 37.3562C12.113 37.3562 10.2945 36.6165 9.1233 35.3836C8.32193 34.5822 7.82878 33.4726 7.76713 32.2706L0 33.9349C0.215754 36.2466 1.29452 38.2808 2.92809 39.9144C5.51713 42.6267 9.64727 44.2603 14.3322 44.2603ZM71.7227 44.2603C76.7467 44.2603 80.6302 42.411 83.2809 39.8528C85.3768 37.8185 86.6713 35.4452 87.3494 32.9795L79.3973 30.3288C79.0583 31.5617 78.3802 32.8562 77.3015 33.8733C76.0069 35.1062 74.2501 35.9692 71.7227 35.9692C69.411 35.9692 67.2227 35.0754 65.6816 33.5343C64.1097 31.9007 63.1542 29.5274 63.1542 26.5377C63.1542 23.4863 64.1097 21.1747 65.6816 19.5411C67.2535 17.9692 69.3494 17.1678 71.661 17.1678C74.096 17.1678 75.822 17.9692 77.024 19.2021C78.0412 20.2192 78.6576 21.5137 79.0583 22.8082L87.1645 20.0959C86.548 17.7226 85.2535 15.3493 83.3426 13.3767C80.6302 10.726 76.685 8.81509 71.4453 8.81509C66.6062 8.81509 62.2603 10.6644 59.1473 13.7774C56.0343 16.9829 54.1233 21.3904 54.1233 26.5685C54.1233 31.7466 56.0959 36.1541 59.3014 39.3596C62.4144 42.4418 66.822 44.2603 71.7227 44.2603ZM44.2603 44.2603C47.8048 44.2603 50.3014 43.1815 51.411 42.226V34.8904C50.6096 35.5069 48.9761 36.2466 46.8494 36.2466C45.3391 36.2466 44.2603 35.9076 43.459 35.1678C42.7809 34.4897 42.4418 33.3185 42.4418 31.7774V0.616455H33.4726V9.80139H51.411V18.4932H33.4726V33.9349C33.4726 37.048 34.4281 39.5754 36.1233 41.3322C38.0035 43.2432 40.8083 44.2603 44.2603 44.2603Z" fill="#F3F3F1"/>
    </g>
    <defs>
    <clipPath id="clip0_15030_523">
    <rect width="126.37" height="45" fill="white"/>
    </clipPath>
    </defs>
    </svg>
    